# xmcd CD database file
#
# Track frame offsets:
#	150
#	58322
#	69171
#	85191
#	101436
#	113686
#	129284
#	143806
#	156805
#	173996
#	194240
#	208303
#	226044
#	245741
#	276183
#
# Disc length: 4151 seconds
#
# Revision: 0
# Processed by: cddbd v1.5.1PL0 Copyright (c) Steve Scherf et al.
# Submitted via: CDex 1.51
#
DISCID=d910350f
DTITLE=Steven MEAD - BELLA ITALIA
DYEAR=2004
DGENRE=Classical
TTITLE0=Dulcamarata (Donnizetti Variations) for Euphonium - Karl Heintz KOPER
TTITLE1=Caro mio ben Aria antica - Giuseppe GIORDANI
TTITLE2=Aria di chiesa Pieta Signore - Alessandro STRADELLA
TTITLE3=Vaga luna che inargenti (Aria da camera) - Vincenzo BELLINI
TTITLE4=Vi ravviso o luoghi ameni - Vincenzo BELLINI
TTITLE5=Ah non credea mirarti - Vincenzo BELLINI
TTITLE6=Ah non giunge from La Sonnambula - Vincenzo BELLINI
TTITLE7=A fors' e lui from la Traviata - Vincenzo BELLINI
TTITLE8=Di Provenza il mar il suol from la Traviata - Vincenzo BELLINI
TTITLE9=Ave Maria from Otello - Giuseppe VERDI
TTITLE10=Vissi d'arte from Tosca - Giuseppe VERDI
TTITLE11=Serenata (Aria da salotto) - Enrico TOSELLI
TTITLE12=Preghiera from Lo Scudiero del Re - Francesco FELICIANGETLI
TTITLE13=Alla Czardas for Euphonium - Giovanni ORSOMANDO
TTITLE14=Variations on Carnival of Venice - Jean Baptiste ARBAN
EXTD=YEAR: 2004
EXTT0=
EXTT1=
EXTT2=
EXTT3=
EXTT4=
EXTT5=
EXTT6=
EXTT7=
EXTT8=
EXTT9=
EXTT10=
EXTT11=
EXTT12=
EXTT13=
EXTT14=
PLAYORDER=
